<svg width="0" height="0" style="position:absolute"><symbol viewBox="0 0 14.777 15.882" id="ico-ecolyzer" xmlns="http://www.w3.org/2000/svg"><path data-name="icon/liked tracks" d="M6.717 0v15.882H8.06V0zM3.358 13.5V2.382h1.343V13.5zM0 9.529V6.353h1.343v3.176zM10.075 11.118V4.765h1.343v6.353zM13.433 6.353v3.176h1.343V6.353z" fill="#e0611e"/></symbol><symbol id="ico-pause" viewBox="0 0 59 58" xml:space="preserve" xmlns="http://www.w3.org/2000/svg"><style>.bst0{fill:#fff}</style><path id="bIcon_material-play-circle-outline-2" class="bst0" d="M29.5 0C13.2 0 0 13 0 29s13.2 29 29.5 29S59 45 59 29 45.8 0 29.5 0zm0 52.2C16.6 52.3 6 41.9 5.9 29 6 16.1 16.6 5.7 29.5 5.8 42.4 5.7 53 16.1 53.1 29 53 41.9 42.4 52.3 29.5 52.2z"/><path class="bst0" d="M23.6 16h4.7v27.4h-4.7zM32.5 16h4.7v27.4h-4.7z"/></symbol><symbol id="ico-play" viewBox="0 0 59 58" xml:space="preserve" xmlns="http://www.w3.org/2000/svg"><style>.cst0{fill:#fff}</style><path id="cIcon_material-play-circle-outline-2" class="cst0" d="M23.6 42l17.7-13-17.7-13v26zm5.9-42C13.2 0 0 13 0 29s13.2 29 29.5 29S59 45 59 29 45.8 0 29.5 0zm0 52.2C16.6 52.3 6 41.9 5.9 29 6 16.1 16.6 5.7 29.5 5.8 42.4 5.7 53 16.1 53.1 29 53 41.9 42.4 52.3 29.5 52.2z"/></symbol></svg>