<svg xmlns="http://www.w3.org/2000/svg" width="52.999" height="32.876" viewBox="0 0 52.999 32.876">
  <g id="XMLID_526_" transform="translate(-28 -39)">
    <path id="XMLID_527_" d="M.742,14.061c.109,0,.2-.127.218-.306l.594-6.649L.962.307C.944.128.852,0,.742,0S.534.131.52.307L0,7.107l.52,6.647C.534,13.932.63,14.061.742,14.061Z" transform="translate(29.818 56.059)"/>
    <path id="XMLID_530_" d="M.6,8.929c.107,0,.195-.118.21-.294L1.271,4.5.81.294C.794.123.708,0,.6,0S.4.123.385.3L0,4.5.385,8.634C.4,8.809.488,8.929.6,8.929Z" transform="translate(28 58.662)"/>
    <path id="XMLID_531_" d="M1.026.374C1.011.158.9,0,.76,0S.509.158.5.374L0,8.44l.5,7.772c.013.215.125.371.263.371s.251-.156.266-.371L1.587,8.44Z" transform="translate(31.879 54.726)"/>
    <path id="XMLID_532_" d="M.779,17.18c.163,0,.295-.189.311-.437l.531-8.016L1.09.436C1.074.187.942,0,.779,0s-.3.187-.31.437L0,8.727l.469,8.016C.481,16.991.614,17.18.779,17.18Z" transform="translate(33.961 54.441)"/>
    <path id="XMLID_533_" d="M.8,16.775c.19,0,.342-.214.358-.5l0,0,.5-8.084L1.154.5C1.139.218.987,0,.8,0S.453.218.442.5L0,8.193l.442,8.082C.454,16.561.605,16.775.8,16.775Z" transform="translate(36.058 54.976)"/>
    <path id="XMLID_534_" d="M1.688,13.078,1.219.57C1.206.253,1.031,0,.816,0S.428.253.415.57L0,13.078l.415,8.082c.013.319.188.568.4.568s.39-.249.4-.568v0Z" transform="translate(38.172 50.093)"/>
    <path id="XMLID_535_" d="M.836,24.662c.237,0,.433-.277.444-.63v.005L1.718,16,1.28.63C1.268.277,1.072,0,.836,0S.4.277.386.63L0,16l.388,8.033C.4,24.385.594,24.662.836,24.662Z" transform="translate(40.306 47.171)"/>
    <path id="XMLID_536_" d="M.852,0C.585,0,.37.309.359.7L0,17.351.359,25.3c.011.387.226.694.492.694s.482-.3.492-.7v0l.408-7.951L1.343.7C1.334.306,1.117,0,.852,0Z" transform="translate(42.456 45.824)"/>
    <path id="XMLID_782_" d="M.874,26.632c.293,0,.526-.333.537-.762v0l.377-7.9L1.41.762C1.4.335,1.167,0,.874,0S.343.335.338.762L0,17.974l.338,7.9C.343,26.3.58,26.632.874,26.632Z" transform="translate(44.618 45.201)"/>
    <path id="XMLID_783_" d="M.888,26.249c.316,0,.572-.365.581-.827v.007L1.816,17.6,1.47.825C1.46.363,1.2,0,.888,0S.314.363.3.825L0,17.6l.307,7.825C.314,25.884.57,26.249.888,26.249Z" transform="translate(46.806 45.576)"/>
    <path id="XMLID_784_" d="M1.851,17.054,1.537.89C1.529.392,1.253,0,.91,0S.289.392.282.893L0,17.054l.282,7.778c.007.495.284.886.628.886s.62-.392.627-.894v.007Z" transform="translate(49.002 46.123)"/>
    <path id="XMLID_785_" d="M.926,28.864c.365,0,.667-.428.672-.954v0l.285-7.724L1.6.956C1.593.427,1.291,0,.926,0S.261.429.253.958L0,20.182l.253,7.732C.261,28.436.562,28.864.926,28.864Z" transform="translate(51.221 42.991)"/>
    <path id="XMLID_786_" d="M1.014,0C.62,0,.3.461.294,1.023L0,22l.3,7.61c0,.555.324,1.014.718,1.014s.713-.46.715-1.023v.009L2.051,22,1.729,1.023C1.727.459,1.4,0,1.014,0Z" transform="translate(53.36 41.182)"/>
    <path id="XMLID_787_" d="M.705,32.862c.016,0,17.953.014,18.068.014,3.6,0,6.52-4.169,6.52-9.313s-2.918-9.311-6.52-9.311a4.86,4.86,0,0,0-2.522.725C15.735,6.583,10.808,0,4.8,0A8.651,8.651,0,0,0,.628,1.114,1.055,1.055,0,0,0,0,2.209V31.76A1.048,1.048,0,0,0,.705,32.862Z" transform="translate(55.706 39)"/>
  </g>
</svg>
